<svg width="24" height="32" viewBox="0 0 24 32" fill="none" xmlns="http://www.w3.org/2000/svg">
<path d="M12.0033 15.1725C12.7261 15.1725 13.3438 14.9067 13.8563 14.375C14.3688 13.8433 14.625 13.2042 14.625 12.4575C14.625 11.7109 14.3676 11.0729 13.8529 10.5435C13.3382 10.0141 12.7195 9.74939 11.9967 9.74939C11.2739 9.74939 10.6562 10.0152 10.1438 10.5469C9.63125 11.0786 9.375 11.7178 9.375 12.4644C9.375 13.211 9.63236 13.849 10.1471 14.3784C10.6618 14.9078 11.2805 15.1725 12.0033 15.1725ZM12 31.0546C7.975 27.5167 4.96875 24.2305 2.98125 21.1961C0.99375 18.1617 0 15.3533 0 12.7709C0 8.89718 1.20625 5.81115 3.61875 3.51276C6.03125 1.21438 8.825 0.0651855 12 0.0651855C15.175 0.0651855 17.9688 1.21438 20.3813 3.51276C22.7938 5.81115 24 8.89718 24 12.7709C24 15.3533 23.0063 18.1617 21.0188 21.1961C19.0312 24.2305 16.025 27.5167 12 31.0546Z" fill="white"/>
</svg>
