<svg width="28" height="22" viewBox="0 0 28 22" fill="none" xmlns="http://www.w3.org/2000/svg">
<path d="M2.0625 21.4189C1.5125 21.4189 1.03125 21.2189 0.61875 20.8191C0.20625 20.4192 0 19.9527 0 19.4195V2.09209C0 1.55894 0.20625 1.09243 0.61875 0.692569C1.03125 0.292705 1.5125 0.0927734 2.0625 0.0927734H25.4375C25.9875 0.0927734 26.4688 0.292705 26.8813 0.692569C27.2938 1.09243 27.5 1.55894 27.5 2.09209V19.4195C27.5 19.9527 27.2938 20.4192 26.8813 20.8191C26.4688 21.2189 25.9875 21.4189 25.4375 21.4189H2.0625ZM13.75 11.3556L25.4375 3.9248V2.09209L13.75 9.35629L2.0625 2.09209V3.9248L13.75 11.3556Z" fill="white"/>
</svg>
