<svg width="30" height="30" viewBox="0 0 30 30" fill="none" xmlns="http://www.w3.org/2000/svg">
<path d="M9.66211 1.44348C9.21094 0.390321 8.02148 -0.17023 6.88477 0.129863L1.72852 1.48878C0.708984 1.76056 0 2.65518 0 3.67436C0 17.6825 11.7539 29.0407 26.25 29.0407C27.3047 29.0407 28.2305 28.3556 28.5117 27.3704L29.918 22.3877C30.2285 21.2893 29.6484 20.1399 28.5586 19.7039L22.9336 17.439C21.9785 17.054 20.8711 17.3201 20.2207 18.0958L17.8535 20.8873C13.7285 19.0018 10.3887 15.7743 8.4375 11.7882L11.3262 9.50636C12.1289 8.8722 12.4043 7.80772 12.0059 6.88479L9.66211 1.44914V1.44348Z" fill="white"/>
</svg>
