<svg width="28" height="29" viewBox="0 0 28 29" fill="none" xmlns="http://www.w3.org/2000/svg">
<path d="M19.25 14.0751C19.25 15.2887 19.1844 16.4586 19.0695 17.5739H8.93047C8.81016 16.4586 8.75 15.2887 8.75 14.0751C8.75 12.8614 8.81563 11.6915 8.93047 10.5763H19.0695C19.1898 11.6915 19.25 12.8614 19.25 14.0751ZM20.825 10.5763H27.557C27.8469 11.697 28 12.8669 28 14.0751C28 15.2833 27.8469 16.4532 27.557 17.5739H20.825C20.9398 16.4477 21 15.2778 21 14.0751C21 12.8724 20.9398 11.7024 20.825 10.5763ZM26.9828 8.82686H20.6008C20.0539 5.33352 18.9711 2.40873 17.5766 0.539053C21.8586 1.6707 25.3422 4.77589 26.9773 8.82686H26.9828ZM18.8289 8.82686H9.17109C9.50469 6.83691 10.0188 5.07657 10.6477 3.64971C11.2219 2.35953 11.8617 1.42469 12.4797 0.834265C13.0922 0.254774 13.6008 0.079834 14 0.079834C14.3992 0.079834 14.9078 0.254774 15.5203 0.834265C16.1383 1.42469 16.7781 2.35953 17.3523 3.64971C17.9867 5.0711 18.4953 6.83144 18.8289 8.82686ZM7.39922 8.82686H1.01719C2.65781 4.77589 6.13594 1.6707 10.4234 0.539053C9.02891 2.40873 7.94609 5.33352 7.39922 8.82686ZM0.442969 10.5763H7.175C7.06016 11.7024 7 12.8724 7 14.0751C7 15.2778 7.06016 16.4477 7.175 17.5739H0.442969C0.153125 16.4532 0 15.2833 0 14.0751C0 12.8669 0.153125 11.697 0.442969 10.5763ZM10.6477 24.495C10.0133 23.0736 9.50469 21.3132 9.17109 19.3233H18.8289C18.4953 21.3132 17.9812 23.0736 17.3523 24.495C16.7781 25.7852 16.1383 26.72 15.5203 27.3104C14.9078 27.8954 14.3992 28.0703 14 28.0703C13.6008 28.0703 13.0922 27.8954 12.4797 27.3159C11.8617 26.7255 11.2219 25.7906 10.6477 24.5004V24.495ZM7.39922 19.3233C7.94609 22.8166 9.02891 25.7414 10.4234 27.6111C6.13594 26.4794 2.65781 23.3743 1.01719 19.3233H7.39922ZM26.9828 19.3233C25.3422 23.3743 21.8641 26.4794 17.582 27.6111C18.9766 25.7414 20.0539 22.8166 20.6062 19.3233H26.9828Z" fill="white"/>
</svg>
