<svg width="35" height="14" viewBox="0 0 35 14" fill="none" xmlns="http://www.w3.org/2000/svg">
<g id="Group 385">
<path id="Vector" d="M29.1215 0.0280096C29.8911 0.182957 30.3913 0.936836 30.2374 1.71157L30.1693 2.05127C30.0124 2.84686 29.7224 3.60372 29.3169 4.29205H33.5791C34.3635 4.29205 34.9999 4.93269 34.9999 5.72233C34.9999 6.27359 34.6891 6.75333 34.2332 6.99171C34.5559 7.25393 34.7631 7.65619 34.7631 8.10614C34.7631 8.8034 34.2658 9.38445 33.6117 9.5096C33.7419 9.72713 33.8159 9.98041 33.8159 10.2516C33.8159 10.8863 33.4045 11.4256 32.8362 11.6103C32.8569 11.7087 32.8687 11.813 32.8687 11.9202C32.8687 12.7099 32.2324 13.3505 31.448 13.3505H28.5621C27.9997 13.3505 27.4521 13.1836 26.9845 12.8708L25.8449 12.105C25.0546 11.5746 24.581 10.6806 24.581 9.72415V8.5829V7.15261V6.41065C24.581 5.54056 24.9747 4.72113 25.6466 4.17584L25.8656 4.00003C26.65 3.36832 27.1857 2.48035 27.3811 1.49107L27.4492 1.15138C27.6031 0.376641 28.3519 -0.126938 29.1215 0.0280096ZM20.7924 4.76881H22.6867C23.2106 4.76881 23.6339 5.19491 23.6339 5.72233V12.397C23.6339 12.9244 23.2106 13.3505 22.6867 13.3505H20.7924C20.2685 13.3505 19.8452 12.9244 19.8452 12.397V5.72233C19.8452 5.19491 20.2685 4.76881 20.7924 4.76881Z" fill="white"/>
<path id="Vector_2" d="M8.61856 6.60765H7.48003C6.37822 6.60765 5.48454 7.50795 5.48454 8.61791C5.48454 9.16795 5.73673 9.46394 5.95464 9.61687C6.12113 9.7328 6.26804 9.91286 6.26804 10.1176C6.26804 10.3593 6.07217 10.5566 5.83222 10.5566H5.77101C5.71224 10.5566 5.65348 10.5468 5.59717 10.5221C5.16134 10.3272 3.13402 9.30608 3.13402 7.0023C3.13402 5.04137 4.71327 3.45043 6.65979 3.45043H8.61856V1.93842C8.61856 1.46484 8.99807 1.08252 9.46817 1.08252C9.67874 1.08252 9.87951 1.16145 10.0362 1.30204L13.42 4.37046C13.6061 4.53819 13.7113 4.77745 13.7113 5.02904C13.7113 5.28063 13.6061 5.51989 13.42 5.68762L10.0166 8.7733C9.87216 8.90403 9.68608 8.97556 9.49265 8.97556H9.40206C8.96869 8.97556 8.61856 8.62284 8.61856 8.18626V6.60765ZM1.95876 3.45043C1.7433 3.45043 1.56701 3.62803 1.56701 3.84508V11.7381C1.56701 11.9552 1.7433 12.1328 1.95876 12.1328H9.79381C10.0093 12.1328 10.1856 11.9552 10.1856 11.7381V10.5542C10.1856 10.1176 10.5357 9.76486 10.9691 9.76486C11.4024 9.76486 11.7526 10.1176 11.7526 10.5542V11.7381C11.7526 12.8284 10.876 13.7114 9.79381 13.7114H1.95876C0.876546 13.7114 0 12.8284 0 11.7381V3.84508C0 2.75486 0.876546 1.87182 1.95876 1.87182H3.13402C3.5674 1.87182 3.91753 2.22454 3.91753 2.66113C3.91753 3.09771 3.5674 3.45043 3.13402 3.45043H1.95876Z" fill="white"/>
</g>
</svg>
