<svg width="16" height="17" viewBox="0 0 16 17" fill="none" xmlns="http://www.w3.org/2000/svg">
<g id="bi:arrow-up">
<g id="Group">
<path id="Vector" fill-rule="evenodd" clip-rule="evenodd" d="M14.9999 8.49986C14.9999 8.36725 14.9472 8.24007 14.8535 8.1463C14.7597 8.05254 14.6325 7.99986 14.4999 7.99986L2.70692 7.99986L5.85392 4.85386C5.9478 4.75997 6.00055 4.63263 6.00055 4.49986C6.00055 4.36708 5.9478 4.23974 5.85392 4.14586C5.76003 4.05197 5.63269 3.99923 5.49992 3.99923C5.36714 3.99923 5.2398 4.05197 5.14592 4.14586L1.14592 8.14586C1.09935 8.1923 1.06241 8.24748 1.0372 8.30822C1.012 8.36897 0.999023 8.43409 0.999023 8.49986C0.999023 8.56562 1.012 8.63074 1.0372 8.69149C1.06241 8.75224 1.09935 8.80741 1.14592 8.85386L5.14592 12.8539C5.1924 12.9003 5.24759 12.9372 5.30833 12.9624C5.36907 12.9875 5.43417 13.0005 5.49992 13.0005C5.63269 13.0005 5.76003 12.9477 5.85392 12.8539C5.9478 12.76 6.00055 12.6326 6.00055 12.4999C6.00055 12.3671 5.9478 12.2397 5.85392 12.1459L2.70692 8.99986H14.4999C14.6325 8.99986 14.7597 8.94718 14.8535 8.85341C14.9472 8.75964 14.9999 8.63247 14.9999 8.49986Z" fill="white"/>
</g>
</g>
</svg>
