<svg width="16" height="17" viewBox="0 0 16 17" fill="none" xmlns="http://www.w3.org/2000/svg">
<g id="bi:arrow-up">
<g id="Group">
<path id="Vector" fill-rule="evenodd" clip-rule="evenodd" d="M1.00008 8.50014C1.00008 8.63275 1.05276 8.75993 1.14653 8.8537C1.2403 8.94746 1.36747 9.00014 1.50008 9.00014H13.2931L10.1461 12.1461C10.0522 12.24 9.99945 12.3674 9.99945 12.5001C9.99945 12.6329 10.0522 12.7603 10.1461 12.8541C10.24 12.948 10.3673 13.0008 10.5001 13.0008C10.6329 13.0008 10.7602 12.948 10.8541 12.8541L14.8541 8.85414C14.9006 8.8077 14.9376 8.75252 14.9628 8.69178C14.988 8.63103 15.001 8.56591 15.001 8.50014C15.001 8.43438 14.988 8.36926 14.9628 8.30851C14.9376 8.24776 14.9006 8.19259 14.8541 8.14614L10.8541 4.14614C10.8076 4.09966 10.7524 4.06278 10.6917 4.03762C10.6309 4.01246 10.5658 3.99951 10.5001 3.99951C10.3673 3.99951 10.24 4.05226 10.1461 4.14614C10.0522 4.24003 9.99945 4.36737 9.99945 4.50014C9.99945 4.63292 10.0522 4.76026 10.1461 4.85414L13.2931 8.00014H1.50008C1.36747 8.00014 1.2403 8.05282 1.14653 8.14659C1.05276 8.24036 1.00008 8.36753 1.00008 8.50014Z" fill="white"/>
</g>
</g>
</svg>
