<svg width="29" height="22" viewBox="0 0 29 22" fill="none" xmlns="http://www.w3.org/2000/svg">
<path id="Vector" d="M2.12607 21.4934C1.55912 21.4934 1.06304 21.2919 0.637822 20.8889C0.212607 20.4859 0 20.0157 0 19.4784V2.01501C0 1.47767 0.212607 1.0075 0.637822 0.604502C1.06304 0.201501 1.55912 0 2.12607 0H26.2216C26.7885 0 27.2846 0.201501 27.7098 0.604502C28.135 1.0075 28.3477 1.47767 28.3477 2.01501V19.4784C28.3477 20.0157 28.135 20.4859 27.7098 20.8889C27.2846 21.2919 26.7885 21.4934 26.2216 21.4934H2.12607ZM14.1738 11.3512L26.2216 3.8621V2.01501L14.1738 9.3362L2.12607 2.01501V3.8621L14.1738 11.3512Z" fill="white"/>
</svg>
