<svg width="32" height="31" viewBox="0 0 32 31" fill="none" xmlns="http://www.w3.org/2000/svg">
<path id="Vector" d="M10.0522 2.24153C9.58714 1.18011 8.36102 0.615157 7.18927 0.917604L1.87408 2.28718C0.823123 2.56109 0.0922852 3.46273 0.0922852 4.48991C0.0922852 18.6079 12.2085 30.0553 27.1514 30.0553C28.2386 30.0553 29.1929 29.3648 29.4828 28.3719L30.9324 23.3501C31.2526 22.243 30.6546 21.0846 29.5312 20.6452L23.7328 18.3626C22.7483 17.9745 21.6067 18.2427 20.9363 19.0245L18.4961 21.8379C14.244 19.9376 10.8012 16.6848 8.78986 12.6674L11.7676 10.3677C12.595 9.72854 12.8789 8.6557 12.4682 7.72553L10.0522 2.24723V2.24153Z" fill="white"/>
</svg>
