<svg width="25" height="32" viewBox="0 0 25 32" fill="none" xmlns="http://www.w3.org/2000/svg">
<path id="Vector" d="M12.4348 15.6475C13.1799 15.6475 13.8166 15.3796 14.3449 14.8437C14.8732 14.3079 15.1373 13.6637 15.1373 12.9112C15.1373 12.1587 14.872 11.5157 14.3414 10.9822C13.8109 10.4486 13.173 10.1818 12.428 10.1818C11.6829 10.1818 11.0462 10.4498 10.5179 10.9856C9.98964 11.5215 9.7255 12.1656 9.7255 12.9181C9.7255 13.6706 9.99079 14.3136 10.5214 14.8472C11.0519 15.3807 11.6898 15.6475 12.4348 15.6475ZM12.4314 31.6542C8.28234 28.0885 5.18343 24.7766 3.13467 21.7184C1.0859 18.6602 0.0615234 15.8297 0.0615234 13.227C0.0615234 9.32292 1.30495 6.21268 3.79182 3.89626C6.27868 1.57984 9.15854 0.421631 12.4314 0.421631C15.7043 0.421631 18.5841 1.57984 21.071 3.89626C23.5579 6.21268 24.8013 9.32292 24.8013 13.227C24.8013 15.8297 23.7769 18.6602 21.7281 21.7184C19.6794 24.7766 16.5805 28.0885 12.4314 31.6542Z" fill="white"/>
</svg>
