<svg width="29" height="29" viewBox="0 0 29 29" fill="none" xmlns="http://www.w3.org/2000/svg">
<path id="Vector" d="M19.8434 14.3592C19.8434 15.5824 19.7757 16.7615 19.6573 17.8855H9.20574C9.08172 16.7615 9.01971 15.5824 9.01971 14.3592C9.01971 13.136 9.08736 11.9569 9.20574 10.8329H19.6573C19.7813 11.9569 19.8434 13.136 19.8434 14.3592ZM21.4669 10.8329H28.4064C28.7052 11.9624 28.8631 13.1415 28.8631 14.3592C28.8631 15.5769 28.7052 16.756 28.4064 17.8855H21.4669C21.5853 16.7504 21.6473 15.5714 21.6473 14.3592C21.6473 13.147 21.5853 11.968 21.4669 10.8329ZM27.8145 9.06981H21.2358C20.672 5.54905 19.5559 2.60132 18.1183 0.716972C22.5324 1.8575 26.1233 4.98706 27.8089 9.06981H27.8145ZM19.4093 9.06981H9.45378C9.79766 7.06424 10.3276 5.29009 10.9759 3.85204C11.5678 2.55173 12.2273 1.60956 12.8644 1.0145C13.4957 0.430464 14.02 0.25415 14.4315 0.25415C14.8431 0.25415 15.3673 0.430464 15.9987 1.0145C16.6357 1.60956 17.2953 2.55173 17.8872 3.85204C18.5411 5.28458 19.0654 7.05873 19.4093 9.06981ZM7.62729 9.06981H1.04854C2.73974 4.98706 6.32507 1.8575 10.7447 0.716972C9.30721 2.60132 8.19102 5.54905 7.62729 9.06981ZM0.456623 10.8329H7.39616C7.27778 11.968 7.21577 13.147 7.21577 14.3592C7.21577 15.5714 7.27778 16.7504 7.39616 17.8855H0.456623C0.157845 16.756 0 15.5769 0 14.3592C0 13.1415 0.157845 11.9624 0.456623 10.8329ZM10.9759 24.8608C10.3219 23.4283 9.79766 21.6542 9.45378 19.6486H19.4093C19.0654 21.6542 18.5355 23.4283 17.8872 24.8608C17.2953 26.1612 16.6357 27.1033 15.9987 27.6984C15.3673 28.2879 14.8431 28.4642 14.4315 28.4642C14.02 28.4642 13.4957 28.2879 12.8644 27.7039C12.2273 27.1088 11.5678 26.1667 10.9759 24.8664V24.8608ZM7.62729 19.6486C8.19102 23.1693 9.30721 26.1171 10.7447 28.0014C6.32507 26.8609 2.73974 23.7313 1.04854 19.6486H7.62729ZM27.8145 19.6486C26.1233 23.7313 22.538 26.8609 18.124 28.0014C19.5615 26.1171 20.672 23.1693 21.2414 19.6486H27.8145Z" fill="white"/>
</svg>
